<mxfile host="app.diagrams.net" modified="2022-09-14T03:26:45.205Z" agent="5.0 (Windows NT 10.0; Win64; x64) AppleWebKit/537.36 (KHTML, like Gecko) Chrome/99.0.4844.84 Safari/537.36 OPR/85.0.4341.79" etag="t_ZmG4t8LeChHMh3sB-4" version="20.3.0" type="github">
  <diagram id="R2lEEEUBdFMjLlhIrx00" name="Page-1">
    <mxGraphModel dx="1381" dy="764" grid="1" gridSize="10" guides="1" tooltips="1" connect="1" arrows="1" fold="1" page="1" pageScale="1" pageWidth="850" pageHeight="1100" math="0" shadow="0" extFonts="Permanent Marker^https://fonts.googleapis.com/css?family=Permanent+Marker">
      <root>
        <mxCell id="0" />
        <mxCell id="1" parent="0" />
        <mxCell id="CyCl2R3WI0okoJ6ywDIk-5" value="" style="edgeStyle=orthogonalEdgeStyle;rounded=0;orthogonalLoop=1;jettySize=auto;html=1;" edge="1" parent="1" source="CyCl2R3WI0okoJ6ywDIk-1" target="CyCl2R3WI0okoJ6ywDIk-4">
          <mxGeometry relative="1" as="geometry" />
        </mxCell>
        <mxCell id="CyCl2R3WI0okoJ6ywDIk-1" value="estacionamento&amp;nbsp;" style="rounded=0;whiteSpace=wrap;html=1;" vertex="1" parent="1">
          <mxGeometry x="160" y="90" width="120" height="60" as="geometry" />
        </mxCell>
        <mxCell id="CyCl2R3WI0okoJ6ywDIk-7" value="" style="edgeStyle=orthogonalEdgeStyle;rounded=0;orthogonalLoop=1;jettySize=auto;html=1;" edge="1" parent="1" source="CyCl2R3WI0okoJ6ywDIk-2" target="CyCl2R3WI0okoJ6ywDIk-1">
          <mxGeometry relative="1" as="geometry" />
        </mxCell>
        <mxCell id="CyCl2R3WI0okoJ6ywDIk-10" value="" style="edgeStyle=orthogonalEdgeStyle;rounded=0;orthogonalLoop=1;jettySize=auto;html=1;" edge="1" parent="1" source="CyCl2R3WI0okoJ6ywDIk-2" target="CyCl2R3WI0okoJ6ywDIk-9">
          <mxGeometry relative="1" as="geometry" />
        </mxCell>
        <mxCell id="CyCl2R3WI0okoJ6ywDIk-2" value="cliente&amp;nbsp;" style="rounded=0;whiteSpace=wrap;html=1;" vertex="1" parent="1">
          <mxGeometry x="570" y="90" width="120" height="60" as="geometry" />
        </mxCell>
        <mxCell id="CyCl2R3WI0okoJ6ywDIk-3" value="vaga&amp;nbsp;" style="rounded=0;whiteSpace=wrap;html=1;" vertex="1" parent="1">
          <mxGeometry x="160" y="340" width="120" height="60" as="geometry" />
        </mxCell>
        <mxCell id="CyCl2R3WI0okoJ6ywDIk-6" value="" style="edgeStyle=orthogonalEdgeStyle;rounded=0;orthogonalLoop=1;jettySize=auto;html=1;" edge="1" parent="1" source="CyCl2R3WI0okoJ6ywDIk-4" target="CyCl2R3WI0okoJ6ywDIk-3">
          <mxGeometry relative="1" as="geometry" />
        </mxCell>
        <mxCell id="CyCl2R3WI0okoJ6ywDIk-4" value="motorista&amp;nbsp;" style="rounded=0;whiteSpace=wrap;html=1;" vertex="1" parent="1">
          <mxGeometry x="160" y="220" width="120" height="60" as="geometry" />
        </mxCell>
        <mxCell id="CyCl2R3WI0okoJ6ywDIk-9" value="nome&amp;nbsp;" style="ellipse;whiteSpace=wrap;html=1;rounded=0;" vertex="1" parent="1">
          <mxGeometry x="770" y="90" width="160" height="90" as="geometry" />
        </mxCell>
      </root>
    </mxGraphModel>
  </diagram>
</mxfile>
